<?xml version="1.0" encoding="UTF-8" standalone="no"?>
<svg width="1600px" height="361px" version="1.1" xmlns="http://www.w3.org/2000/svg" xmlns:xlink="http://www.w3.org/1999/xlink" overflow="visible">
	<desc>Engraved by Verovio 0.9.14-dev-d2d89fc</desc>
	<defs>
		<symbol id="E050" viewBox="0 0 1000 1000" overflow="inherit">
			<path transform="scale(1,-1)" d="M441 -245c-23 -4 -48 -6 -76 -6c-59 0 -102 7 -130 20c-88 42 -150 93 -187 154c-26 44 -43 103 -48 176c-4 60 11 123 44 189c29 57 65 106 110 148s96 85 153 127c-3 16 -8 46 -13 92c-4 43 -5 73 -5 89c0 117 16 172 69 257c34 54 64 82 89 82c21 0 43 -30 69 -92 s39 -115 41 -159c2 -120 -19 -173 -67 -256c-13 -20 -63 -90 -98 -118c-13 -9 -25 -19 -37 -29l31 -181c8 1 18 2 28 2c58 0 102 -12 133 -35c59 -43 92 -104 98 -184c11 -135 -80 -229 -180 -270c8 -57 17 -110 25 -162c5 -31 6 -58 6 -80c0 -30 -5 -53 -14 -70 c-35 -64 -88 -99 -158 -103c-42 -3 -83 6 -124 26c-50 24 -77 59 -80 105c-2 34 5 63 20 87c18 28 45 42 79 44c51 4 99 -40 103 -87c4 -56 -30 -94 -105 -115c17 -24 51 -36 102 -36c62 0 116 43 140 85c9 16 13 41 13 74c0 20 -1 42 -5 67c-8 53 -18 106 -26 159zM461 939 c-95 0 -135 -175 -135 -286c0 -24 2 -48 5 -71c50 39 92 82 127 128c43 57 63 106 60 148c-4 54 -23 82 -57 81zM406 119l54 -326c80 27 116 88 109 184c-7 99 -62 146 -163 142zM382 117c-74 -2 -132 -50 -128 -127c2 -46 43 -99 75 -115c-3 -2 -7 -5 -10 -10 c-70 33 -116 88 -123 172c-5 73 42 135 88 170c23 17 49 29 78 36l-29 170c-21 -13 -52 -37 -92 -73c-50 -44 -86 -84 -109 -119c-49 -75 -71 -140 -67 -195c5 -68 35 -127 93 -176s125 -73 203 -73c25 0 50 3 75 9c-19 111 -36 221 -54 331z" />
		</symbol>
		<symbol id="E262" viewBox="0 0 1000 1000" overflow="inherit">
			<path transform="scale(1,-1)" d="M136 186v169h17v-164l44 14v-91l-44 -14v-165l44 12v-91l-44 -13v-155h-17v150l-76 -22v-155h-17v149l-43 -13v90l43 14v167l-43 -14v92l43 13v169h17v-163zM60 73v-167l76 22v168z" />
		</symbol>
		<symbol id="E084" viewBox="0 0 1000 1000" overflow="inherit">
			<path transform="scale(1,-1)" d="M0 -78c84 97 114 180 134 329h170c-13 -32 -82 -132 -99 -151l-84 -97c-33 -36 -59 -63 -80 -81h162v102l127 123v-225h57v-39h-57v-34c0 -43 19 -65 57 -65v-34h-244v36c48 0 60 26 60 70v27h-203v39z" />
		</symbol>
		<symbol id="E0A2" viewBox="0 0 1000 1000" overflow="inherit">
			<path transform="scale(1,-1)" d="M198 133c102 0 207 -45 207 -133c0 -92 -98 -133 -207 -133c-101 0 -198 46 -198 133c0 88 93 133 198 133zM293 -21c0 14 -3 29 -8 44c-7 20 -18 38 -33 54c-20 21 -43 31 -68 31l-20 -2c-15 -5 -27 -14 -36 -28c-4 -9 -6 -17 -8 -24s-3 -16 -3 -27c0 -15 3 -34 9 -57 s18 -41 34 -55c15 -15 36 -23 62 -23c4 0 10 1 18 2c19 5 32 15 40 30s13 34 13 55z" />
		</symbol>
		<symbol id="E0A3" viewBox="0 0 1000 1000" overflow="inherit">
			<path transform="scale(1,-1)" d="M96 -132zM200 138l41 -5c-2 0 -41 5 -41 5zM278 64c0 22 -17 39 -43 39c-12 0 -26 -3 -41 -10c-85 -43 -165 -94 -165 -156c5 -25 15 -32 49 -32c67 11 200 95 200 159zM0 -36c0 68 73 174 200 174c66 0 114 -39 114 -97c0 -84 -106 -173 -218 -173c-64 0 -96 32 -96 96z " />
		</symbol>
		<symbol id="E0A4" viewBox="0 0 1000 1000" overflow="inherit">
			<path transform="scale(1,-1)" d="M0 -39c0 68 73 172 200 172c66 0 114 -37 114 -95c0 -84 -106 -171 -218 -171c-64 0 -96 30 -96 94z" />
		</symbol>
	</defs>
	<style type="text/css">g.page-margin{font-family:Times;} g.tempo{font-weight:bold;} g.dir, g.dynam {font-style:italic;}</style>
	<svg id="definition-scale" viewBox="0 0 16000 3610">
		<g class="page-margin" transform="translate(500, 500)">
			<g class="system" id="system-0000000639200524">
				<g class="section boundaryStart" id="section-0000000414947408" />
				<g class="measure m-1" id="measure-L6">
					<g class="staff" id="staff-L6F1N1">
						<path d="M0 1445 L4178 1445" stroke="#000000" stroke-width="20" />
						<path d="M0 1625 L4178 1625" stroke="#000000" stroke-width="20" />
						<path d="M0 1805 L4178 1805" stroke="#000000" stroke-width="20" />
						<path d="M0 1985 L4178 1985" stroke="#000000" stroke-width="20" />
						<path d="M0 2165 L4178 2165" stroke="#000000" stroke-width="20" />
						<g class="clef" id="clef-0000001882145392">
							<use xlink:href="#E050" x="90" y="1985" height="720px" width="720px" />
						</g>
						<g class="keySig" id="ksig-0000000783483034">
							<use xlink:href="#E262" x="735" y="1445" height="720px" width="720px" />
							<use xlink:href="#E262" x="918" y="1715" height="720px" width="720px" />
							<use xlink:href="#E262" x="1101" y="1355" height="720px" width="720px" />
							<use xlink:href="#E262" x="1284" y="1625" height="720px" width="720px" />
						</g>
						<g class="meterSig" id="msig-0000000730267091">
							<use xlink:href="#E084" x="1605" y="1625" height="720px" width="720px" />
							<use xlink:href="#E084" x="1605" y="1985" height="720px" width="720px" />
						</g>
						<g class="layer" id="layer-L6F1N1">
							<g class="note qon-0 qoff-4 b40-174" id="note-L7F1">
								<use xlink:href="#E0A2" x="2198" y="2165" height="720px" width="720px" />
							</g>
						</g>
					</g>
					<g class="barLineAttr" id="bline-0000000208464605">
						<path d="M4163 1445 L4163 2165" stroke="#000000" stroke-width="30" />
					</g>
				</g>
				<g class="measure m-2" id="measure-L8">
					<g class="staff" id="staff-L8F1N1">
						<path d="M4178 1445 L6916 1445" stroke="#000000" stroke-width="20" />
						<path d="M4178 1625 L6916 1625" stroke="#000000" stroke-width="20" />
						<path d="M4178 1805 L6916 1805" stroke="#000000" stroke-width="20" />
						<path d="M4178 1985 L6916 1985" stroke="#000000" stroke-width="20" />
						<path d="M4178 2165 L6916 2165" stroke="#000000" stroke-width="20" />
						<g class="layer" id="layer-L8F1N1">
							<g class="note qon-4 qoff-6 b40-180" id="note-L9F1">
								<use xlink:href="#E0A3" x="4399" y="2075" height="720px" width="720px" />
								<g class="stem" id="stem-0000000324677978">
									<path d="M4615 2053 L4615 1445" stroke="#000000" stroke-width="20" />
								</g>
							</g>
							<g class="note qon-6 qoff-8 b40-186" id="note-L10F1">
								<use xlink:href="#E0A3" x="5593" y="1985" height="720px" width="720px" />
								<g class="stem" id="stem-0000000106829219">
									<path d="M5809 1963 L5809 1355" stroke="#000000" stroke-width="20" />
								</g>
							</g>
						</g>
					</g>
					<g class="barLineAttr" id="bline-0000001387279946">
						<path d="M6901 1445 L6901 2165" stroke="#000000" stroke-width="30" />
					</g>
				</g>
				<g class="measure m-3" id="measure-L11">
					<g class="staff" id="staff-L11F1N1">
						<path d="M6916 1445 L10029 1445" stroke="#000000" stroke-width="20" />
						<path d="M6916 1625 L10029 1625" stroke="#000000" stroke-width="20" />
						<path d="M6916 1805 L10029 1805" stroke="#000000" stroke-width="20" />
						<path d="M6916 1985 L10029 1985" stroke="#000000" stroke-width="20" />
						<path d="M6916 2165 L10029 2165" stroke="#000000" stroke-width="20" />
						<g class="layer" id="layer-L11F1N1">
							<g class="note qon-8 qoff-9 b40-191" id="note-L12F1">
								<use xlink:href="#E0A4" x="7137" y="1895" height="720px" width="720px" />
								<g class="stem" id="stem-0000000182354841">
									<path d="M7353 1873 L7353 1265" stroke="#000000" stroke-width="20" />
								</g>
							</g>
							<g class="note qon-9 qoff-11 b40-197" id="note-L13F1">
								<use xlink:href="#E0A3" x="7922" y="1805" height="720px" width="720px" />
								<g class="stem" id="stem-0000000378648418">
									<path d="M7932 1827 L7932 2435" stroke="#000000" stroke-width="20" />
								</g>
							</g>
							<g class="note qon-11 qoff-12 b40-191" id="note-L14F1">
								<use xlink:href="#E0A4" x="9116" y="1895" height="720px" width="720px" />
								<g class="stem" id="stem-0000000949915265">
									<path d="M9332 1873 L9332 1265" stroke="#000000" stroke-width="20" />
								</g>
							</g>
						</g>
					</g>
					<g class="barLineAttr" id="bline-0000000381480364">
						<path d="M10014 1445 L10014 2165" stroke="#000000" stroke-width="30" />
					</g>
				</g>
				<g class="measure m-4" id="measure-L15">
					<g class="staff" id="staff-L15F1N1">
						<path d="M10029 1445 L12767 1445" stroke="#000000" stroke-width="20" />
						<path d="M10029 1625 L12767 1625" stroke="#000000" stroke-width="20" />
						<path d="M10029 1805 L12767 1805" stroke="#000000" stroke-width="20" />
						<path d="M10029 1985 L12767 1985" stroke="#000000" stroke-width="20" />
						<path d="M10029 2165 L12767 2165" stroke="#000000" stroke-width="20" />
						<g class="layer" id="layer-L15F1N1">
							<g class="note qon-12 qoff-14 b40-186" id="note-L16F1">
								<use xlink:href="#E0A3" x="10250" y="1985" height="720px" width="720px" />
								<g class="stem" id="stem-0000000832427057">
									<path d="M10466 1963 L10466 1355" stroke="#000000" stroke-width="20" />
								</g>
							</g>
							<g class="note qon-14 qoff-16 b40-180" id="note-L17F1">
								<use xlink:href="#E0A3" x="11444" y="2075" height="720px" width="720px" />
								<g class="stem" id="stem-0000001893070441">
									<path d="M11660 2053 L11660 1445" stroke="#000000" stroke-width="20" />
								</g>
							</g>
						</g>
					</g>
					<g class="barLineAttr" id="bline-0000000721902811">
						<path d="M12752 1445 L12752 2165" stroke="#000000" stroke-width="30" />
					</g>
				</g>
				<g class="measure m-5" id="measure-L18">
					<g class="staff" id="staff-L18F1N1">
						<path d="M12767 1445 L15002 1445" stroke="#000000" stroke-width="20" />
						<path d="M12767 1625 L15002 1625" stroke="#000000" stroke-width="20" />
						<path d="M12767 1805 L15002 1805" stroke="#000000" stroke-width="20" />
						<path d="M12767 1985 L15002 1985" stroke="#000000" stroke-width="20" />
						<path d="M12767 2165 L15002 2165" stroke="#000000" stroke-width="20" />
						<g class="layer" id="layer-L18F1N1">
							<g class="note qon-16 qoff-20 b40-174" id="note-L19F1">
								<use xlink:href="#E0A2" x="12992" y="2165" height="720px" width="720px" />
							</g>
						</g>
					</g>
					<g class="barLineAttr" id="bline-0000001329934169">
						<path d="M14837 1445 L14837 2165" stroke="#000000" stroke-width="30" />
						<path d="M14957 1445 L14957 2165" stroke="#000000" stroke-width="90" />
					</g>
				</g>
				<g class="boundaryEnd section-0000000414947408" id="bdend-0000001581084508" />
			</g>
		</g>
	</svg>
</svg>
